# xmcd
# Copyright (C) 1995-1998 Ti Kan
#
# Track frame offsets:
#       150
#       17187
#       32185
#       47998
#       64769
#       80395
#       94258
#       110797
#       125406
#       144983
#       161645
#       179572
#       194631
#       214136
#
# Disc length: 3079 seconds
#
# Revision: 0
# Processed by: cddbd v1.5.2PL0 Copyright (c) Steve Scherf et al.
# Submitted via: CD-Transfer v1.0
#
DISCID=d30c050e
DTITLE=Mario Pacchioli - Ueli Bleuler
DYEAR=04
DGENRE=Blues
TTITLE0=Ocean
TTITLE1=Tier Tei
TTITLE2=Be My Girl
TTITLE3=Another Day Goes By
TTITLE4=Can't Stop Loving You
TTITLE5=Blue
TTITLE6=You Are The One
TTITLE7=The Sun's Gonna Shine Again
TTITLE8=The Dream That Never Dies
TTITLE9=Strong Als Steel
TTITLE10=Automn Moon
TTITLE11=By Your Side
TTITLE12=Il Temps Ei Cheu
TTITLE13=Bridge Over Troubled Water
EXTD=
EXTT0=
EXTT1=
EXTT2=
EXTT3=
EXTT4=
EXTT5=
EXTT6=
EXTT7=
EXTT8=
EXTT9=
EXTT10=
EXTT11=
EXTT12=
EXTT13=
PLAYORDER=
